<?xml version="1.0" encoding="utf-8"?>
<!-- Generator: Adobe Illustrator 27.0.0, SVG Export Plug-In . SVG Version: 6.00 Build 0)  -->
<svg version="1.1" id="Layer_1" xmlns="http://www.w3.org/2000/svg" xmlns:xlink="http://www.w3.org/1999/xlink" x="0px" y="0px"
	 viewBox="0 0 1002.7 243.6" style="enable-background:new 0 0 1002.7 243.6;" xml:space="preserve">
<style type="text/css">
	.st0{fill:#4C525E;}
	.st1{fill:#8F1BF0;}
	.st2{fill:#6F6EF1;}
	.st3{fill:#8439F0;}
	.st4{fill:#7858F1;}
	.st5{fill:url(#SVGID_1_);}
	.st6{fill:url(#SVGID_00000103964254071676757770000002888675509916623747_);}
	.st7{fill:url(#SVGID_00000012450921184770143380000010649602763717244320_);}
	.st8{fill:#6C79F1;}
	.st9{fill:#121C38;}
</style>
<g>
	<g>
		<g>
			<path class="st0" d="M334.4,218.2l17.4-46h6.2l17.4,46h-5.6L355,178.5h-0.3L340,218.2H334.4z M342.5,206.7l2-4.9h20.8l2,4.9
				H342.5z"/>
			<path class="st0" d="M396,218.2v-46h5.6v46H396z"/>
			<path class="st0" d="M456.3,218.2v-46h19.4c2.8,0,5.2,0.5,7.3,1.5c2,1,3.6,2.5,4.6,4.4c1.1,1.9,1.6,4.2,1.6,6.8
				c0,2.1-0.5,4.1-1.6,5.9c-1.1,1.8-2.5,3.1-4.3,3.9c1.8,0.7,3.4,2,4.7,4c1.3,2,1.9,4.1,1.9,6.5c0,2.6-0.5,4.9-1.6,6.8
				c-1.1,1.9-2.6,3.4-4.6,4.4s-4.5,1.5-7.3,1.5h-20.1V218.2z M475.4,192.9c1.6,0,3.1-0.3,4.3-1c1.2-0.6,2.2-1.5,2.9-2.7
				c0.7-1.2,1-2.6,1-4.2c0-2.5-0.7-4.4-2.2-5.8c-1.5-1.4-3.5-2.1-6-2.1h-13.5v15.8H475.4z M476,213.3c1.6,0,3.1-0.3,4.3-1
				c1.2-0.6,2.2-1.5,2.9-2.7c0.7-1.2,1-2.6,1-4.2c0-2.5-0.7-4.4-2.2-5.8c-1.5-1.4-3.5-2.1-6-2.1h-14.1v15.8H476z"/>
			<path class="st0" d="M513.6,218.2v-46h5.6v41.1h23.3v4.9L513.6,218.2L513.6,218.2z"/>
			<path class="st0" d="M579.1,218.9c-4.1,0-7.7-0.9-10.8-2.7s-5.6-4.5-7.3-8s-2.6-7.8-2.6-12.9c0-5,0.9-9.3,2.6-12.9
				c1.7-3.5,4.2-6.2,7.3-8s6.7-2.7,10.8-2.7s7.7,0.9,10.8,2.7s5.6,4.5,7.3,8s2.6,7.8,2.6,12.9c0,5-0.9,9.3-2.6,12.9
				c-1.7,3.5-4.2,6.2-7.3,8S583.2,218.9,579.1,218.9z M579.1,213.9c3,0,5.6-0.7,7.9-2.2c2.3-1.4,4.1-3.6,5.3-6.4
				c1.3-2.8,1.9-6.2,1.9-10.2s-0.6-7.4-1.9-10.2c-1.3-2.8-3-4.9-5.3-6.4c-2.3-1.4-4.9-2.2-7.9-2.2s-5.6,0.7-7.9,2.2
				c-2.3,1.4-4.1,3.6-5.3,6.4c-1.3,2.8-1.9,6.2-1.9,10.2s0.6,7.4,1.9,10.2c1.3,2.8,3,4.9,5.3,6.4
				C573.5,213.2,576.1,213.9,579.1,213.9z"/>
			<path class="st0" d="M641.7,218.9c-4.1,0-7.7-0.9-10.8-2.7s-5.6-4.5-7.3-8s-2.6-7.8-2.6-12.9c0-5,0.9-9.3,2.6-12.9
				c1.7-3.5,4.2-6.2,7.3-8s6.7-2.7,10.8-2.7c4.5,0,8.3,1.1,11.5,3.2c3.2,2.1,5.6,5.3,7.2,9.6h-5.9c-1.3-2.7-3-4.7-5.1-6
				s-4.7-1.9-7.7-1.9s-5.6,0.7-7.9,2.2c-2.3,1.4-4.1,3.6-5.3,6.4c-1.3,2.8-1.9,6.2-1.9,10.2s0.6,7.4,1.9,10.2c1.3,2.8,3,4.9,5.3,6.4
				c2.3,1.4,4.9,2.2,7.9,2.2s5.6-0.6,7.7-1.9c2.1-1.3,3.8-3.3,5.1-6h5.9c-1.6,4.2-4,7.4-7.2,9.6C650,217.8,646.1,218.9,641.7,218.9z
				"/>
			<path class="st0" d="M683.2,218.2v-46h5.6v22l20.4-22h6.6l-21,22.7l22,23.3h-6.6l-21.4-22.7v22.7H683.2z"/>
			<path class="st0" d="M752.6,218.9c-4.1,0-7.7-0.9-10.8-2.7s-5.6-4.5-7.3-8s-2.6-7.8-2.6-12.9c0-5,0.9-9.3,2.6-12.9
				c1.7-3.5,4.2-6.2,7.3-8s6.7-2.7,10.8-2.7c4.5,0,8.3,1.1,11.5,3.2c3.2,2.1,5.6,5.3,7.2,9.6h-5.9c-1.3-2.7-3-4.7-5.1-6
				s-4.7-1.9-7.7-1.9s-5.6,0.7-7.9,2.2c-2.3,1.4-4.1,3.6-5.3,6.4c-1.3,2.8-1.9,6.2-1.9,10.2s0.6,7.4,1.9,10.2c1.3,2.8,3,4.9,5.3,6.4
				c2.3,1.4,4.9,2.2,7.9,2.2s5.6-0.6,7.7-1.9c2.1-1.3,3.8-3.3,5.1-6h5.9c-1.6,4.2-4,7.4-7.2,9.6
				C760.9,217.8,757.1,218.9,752.6,218.9z"/>
			<path class="st0" d="M794.1,218.2v-46h5.6v46H794.1z M798,197.5v-4.9h27.7v4.9H798z M824,218.2v-46h5.6v46H824z"/>
			<path class="st0" d="M850.1,218.2l17.4-46h6.2l17.4,46h-5.6l-14.8-39.7h-0.3l-14.8,39.7H850.1z M858.3,206.7l2-4.9h20.8l2,4.9
				H858.3z"/>
			<path class="st0" d="M911.7,218.2v-46h5.6v46H911.7z"/>
			<path class="st0" d="M943,218.2v-46h7.9l23,39.1h0.3v-39.1h5.6v46h-7.9l-23-39.1h-0.3v39.1L943,218.2L943,218.2z"/>
		</g>
	</g>
	<g>
		<path class="st1" d="M184.2,64.4c-0.1,0.2-0.3,0.2-0.5,0.1C183.8,64.4,184,64.3,184.2,64.4z"/>
		<path class="st1" d="M185.6,64.2c-0.1,0.2-0.3,0.2-0.5,0.1C185.2,64.1,185.4,64.1,185.6,64.2z"/>
		<path class="st2" d="M181.3,158.4c0.2,0,0.3,0.1,0.4,0.2C181.5,158.6,181.4,158.6,181.3,158.4z"/>
		<path class="st2" d="M181.8,158.7c0.2,0,0.3,0,0.4,0.2C182,158.9,181.9,158.8,181.8,158.7z"/>
		<path class="st3" d="M161.9,71.8c-0.1,0.1-0.1,0.1-0.2,0.1C161.7,71.8,161.7,71.7,161.9,71.8z"/>
		<path class="st3" d="M172.1,67.6c-0.1,0.1-0.1,0.1-0.3,0.1C172,67.6,172,67.6,172.1,67.6z"/>
		<path class="st4" d="M151.1,77.1c0,0.1-0.1,0.1-0.2,0.1C150.9,77.2,150.9,77.1,151.1,77.1z"/>
		<path class="st4" d="M150.6,77.4c0,0.1-0.1,0.1-0.2,0.1C150.4,77.4,150.5,77.4,150.6,77.4z"/>
		<path class="st4" d="M150.1,77.7c0,0.1-0.1,0.1-0.2,0.1C149.9,77.7,150,77.6,150.1,77.7z"/>
		<path class="st3" d="M172.9,67.3c-0.1,0.1-0.1,0.2-0.3,0.1C172.7,67.3,172.7,67.3,172.9,67.3z"/>
		<path class="st1" d="M182.7,64.7c-0.1,0.1-0.2,0.1-0.3,0.1C182.5,64.7,182.6,64.6,182.7,64.7z"/>
		
			<linearGradient id="SVGID_1_" gradientUnits="userSpaceOnUse" x1="24.1037" y1="35.7521" x2="219.1254" y2="167.2959" gradientTransform="matrix(1 0 0 -1 0 246)">
			<stop  offset="0" style="stop-color:#50C2F3"/>
			<stop  offset="1" style="stop-color:#9C01EF"/>
		</linearGradient>
		<path class="st5" d="M132.2,10c0.2,0,6.4,0.1,7.2,0.2c0.1,0,0.1,0,0.2,0c0.3,0,0.7,0,1,0.1c0.5,0.1,0.9,0.1,1.4,0.1s1,0.1,1.5,0.2
			c0.5,0.1,1.1,0.1,1.6,0.2c0.2,0,0.4,0.1,0.6,0.1c1.1,0.2,2.2,0.4,3.2,0.6c2.3,0.5,4.5,1.1,6.7,1.8c4.8,1.6,9.4,3.7,13.7,6.4
			c4.5,2.7,8.6,5.9,12.5,9.4c3.8,3.4,7.3,7.1,10.5,11c3.5,4.2,6.7,8.6,9.6,13.2c0.1,0.1,0.1,0.2,0.1,0.3c0,0,0,0,0,0.1
			c-0.1,0.1-0.1,0.1-0.2,0.1c-0.1,0-0.2-0.1-0.3-0.2c-0.3-0.4-0.6-0.8-1-1.3c-0.1-0.1-0.1-0.2-0.2-0.2c-0.5-0.5-0.9-1.1-1.4-1.6
			c-0.1-0.1-0.2-0.2-0.2-0.3c-0.2-0.3-0.4-0.5-0.6-0.7c-0.2-0.2-0.4-0.4-0.5-0.6c-0.2-0.3-0.5-0.6-0.8-0.9c-0.3-0.3-0.6-0.7-0.9-1
			c-0.1-0.1-0.2-0.3-0.4-0.4c-0.3-0.3-0.7-0.7-1-1s-0.6-0.6-0.9-1c-0.2-0.3-0.4-0.5-0.7-0.8c-0.9-0.9-1.7-1.7-2.6-2.6
			c-0.3-0.3-0.6-0.6-0.9-0.8c-0.1,0-0.1-0.1-0.1-0.1c-0.4-0.3-0.7-0.7-1.1-1c-0.2-0.2-0.4-0.4-0.7-0.6c-0.1-0.1-0.3-0.2-0.4-0.3
			c-0.3-0.2-0.6-0.4-0.8-0.7c-0.2-0.2-0.3-0.3-0.5-0.5c-0.6-0.4-1.1-0.9-1.6-1.3c-0.5-0.3-0.9-0.7-1.4-1.1c-0.3-0.2-0.6-0.4-0.9-0.7
			c-0.1-0.1-0.3-0.2-0.4-0.3c-0.8-0.5-1.6-1-2.3-1.6c-0.6-0.4-1.2-0.7-1.8-1.1c-0.1-0.1-0.2-0.1-0.3-0.1c-0.4-0.2-0.8-0.4-1.2-0.7
			c-0.2-0.1-0.4-0.2-0.5-0.3c-1-0.5-2-1-3-1.5c-0.2-0.1-0.5-0.2-0.7-0.3c-0.2-0.1-0.3-0.1-0.5-0.2c-1-0.5-1.9-0.8-2.9-1.2
			c-0.8-0.3-1.7-0.6-2.5-0.8c-0.1,0-0.3-0.1-0.4-0.1c-0.8-0.2-1.6-0.4-2.4-0.6c-0.4-0.1-0.8-0.2-1.2-0.3c-0.3-0.1-0.5-0.1-0.8-0.2
			c-0.2,0-0.3-0.1-0.5-0.1c-0.3-0.1-0.6-0.1-0.8-0.1s-0.4,0-0.6-0.1c-0.3-0.1-0.6-0.1-1-0.1c-0.2,0-0.3,0-0.5,0
			c-0.3,0-0.6,0-0.8-0.1s-0.5-0.1-0.7-0.1c-0.4,0-0.9,0-1.3,0c-2.2,0-4.5,0-6.7,0c-0.3,0-0.6,0-1,0.1c-0.3,0.1-0.6,0.1-1,0.1
			c-0.2,0-0.4,0-0.7,0c-0.1,0-0.2,0-0.3,0.1c-0.3,0.2-0.5,0.2-0.8,0.2s-0.7,0-1,0.1c-0.2,0.1-0.4,0.1-0.5,0.1s-0.2,0-0.2,0
			c-0.5,0.2-1,0.2-1.4,0.3c-0.8,0.2-1.6,0.4-2.3,0.6c-0.1,0-0.2,0-0.3,0.1c-0.2,0-0.4,0.1-0.6,0.1c-0.6,0.2-1.2,0.4-1.9,0.6
			c-1,0.4-2.1,0.7-3.1,1.1c0,0,0,0-0.1,0c-0.6,0.2-1.2,0.5-1.8,0.7c-0.5,0.2-1,0.4-1.5,0.6c-0.3,0.1-0.5,0.2-0.7,0.4
			c-0.1,0.1-0.2,0.1-0.4,0.2c-0.1,0-0.2,0.1-0.3,0.1c-0.7,0.3-1.4,0.7-2,1c-0.4,0.2-0.7,0.4-1.1,0.6s-0.7,0.4-1.1,0.6
			c-0.7,0.4-1.4,0.8-2.1,1.3c-0.2,0.1-0.3,0.2-0.5,0.3c-1.1,0.7-2.1,1.4-3.2,2.1c-0.9,0.6-1.7,1.3-2.6,1.9c-0.1,0.1-0.2,0.1-0.3,0.2
			c-0.3,0.3-0.6,0.5-0.9,0.7c-0.1,0.1-0.2,0.1-0.2,0.2c-0.9,0.8-1.9,1.5-2.8,2.4c-0.1,0.1-0.1,0.1-0.2,0.1c-0.1,0.1-0.2,0.1-0.3,0.2
			c-0.4,0.4-0.9,0.8-1.3,1.2c-0.6,0.5-1.1,1-1.7,1.5c-0.2,0.2-0.4,0.3-0.6,0.5s-0.3,0.4-0.5,0.6c-0.9,1-1.9,1.9-2.8,2.9
			c-0.2,0.3-0.5,0.5-0.7,0.8c-0.1,0.1-0.2,0.2-0.3,0.4c-0.3,0.3-0.6,0.5-0.8,0.8c-0.5,0.6-1,1.3-1.6,1.8c-0.1,0.1-0.1,0.2-0.2,0.2
			c-0.2,0.3-0.4,0.6-0.7,0.9c-0.3,0.3-0.5,0.6-0.7,0.9c0.1,0.1,0,0.2,0,0.3c-0.4,0.6-0.9,1.1-1.3,1.7c-0.5,0.6-1,1.3-1.5,1.9
			c-0.1,0.2-0.3,0.3-0.3,0.5c0,0.1-0.1,0.2-0.2,0.3s-0.2,0.2-0.2,0.3c-0.6,0.9-1.3,1.7-1.8,2.6c-1.4,2-2.7,4.1-4,6.2
			c-0.5,0.8-0.9,1.5-1.4,2.3c-0.4,0.8-0.9,1.6-1.3,2.4s-0.9,1.6-1.3,2.4c-0.3,0.5-0.5,1-0.8,1.5c-0.5,1.1-1,2.1-1.6,3.2
			c-0.1,0.3-0.3,0.5-0.4,0.8c-0.1,0.1-0.1,0.3-0.2,0.4c-0.2,0.6-0.4,1.1-0.7,1.7c-0.1,0.2-0.2,0.4-0.3,0.7c-0.6,1.4-1.1,2.7-1.7,4.1
			c-0.5,1.3-1,2.5-1.4,3.8c-0.2,0.6-0.4,1.3-0.7,1.9c-0.3,0.7-0.5,1.3-0.7,2s-0.4,1.4-0.7,2.1c-0.1,0.2-0.1,0.4-0.2,0.6
			c-0.2,0.8-0.4,1.5-0.6,2.3c-0.2,0.6-0.4,1.3-0.5,1.9c-0.1,0.5-0.2,0.9-0.3,1.4c-0.2,0.8-0.4,1.6-0.6,2.4c-0.1,0.3-0.1,0.6-0.3,0.9
			c0,0.1-0.1,0.2-0.1,0.4c0,0.2,0,0.5-0.1,0.7c-0.2,0.9-0.4,1.8-0.6,2.6c0,0.1,0,0.2,0,0.4c0,0.2-0.1,0.5-0.1,0.7s-0.1,0.3-0.1,0.5
			c0,0.4-0.1,0.8-0.2,1.3c0,0.1,0,0.2,0,0.2c0,0.4-0.1,0.8-0.2,1.3c0,0.2,0,0.4-0.1,0.6c0,0.2,0,0.5-0.1,0.7
			c-0.1,0.4-0.2,0.7-0.1,1.1c0,0.3,0,0.5-0.1,0.8c-0.1,0.5-0.2,0.9-0.2,1.4c0,0.2,0,0.4-0.1,0.7c-0.2,0.6-0.2,1.2-0.2,1.8
			c0,0.2,0,0.4,0,0.6c0,0.5,0,0.9-0.2,1.4c0,0.2-0.1,0.4-0.1,0.5c0,0.6,0,1.2,0,1.8c0,0.8,0,1.6,0,2.4c0,0.2,0,0.4-0.1,0.5
			c-0.1,0.2-0.2,0.4-0.1,0.6c0,0.6,0,1.1,0,1.7c0,0.1,0,0.2,0,0.3s0.1,0.2,0.2,0.3c0,0.2,0,0.3,0.1,0.5c0,0.6,0,1.1,0,1.7
			c0,0.6,0,1.2,0.1,1.8c0.1,0.5,0.2,1,0.2,1.5v0.1c0.1,0.6,0.2,1.1,0.3,1.7c0.2,1.1,0.5,2.3,0.8,3.4c0.4,1.4,0.9,2.8,1.5,4.2
			c2.4,5.3,6,9.5,10.8,12.7c1.6,1.1,3.3,1.9,5,2.8h0.1c0.4,0.2,0.8,0.3,1.2,0.4c1.2,0.4,2.4,0.8,3.6,1.2c1.3,0.3,2.6,0.6,3.9,0.8
			c0.5,0.1,1.1,0.2,1.6,0.2c0.1,0,0.3,0,0.4,0.1c0.2,0,0.5,0.1,0.7,0.1c1.7,0.1,3.4,0.1,5.1,0.1c0.6,0,1.3,0,1.9,0
			c0.1,0,0.2,0,0.2,0c0.8-0.1,1.6-0.1,2.4-0.2c0.7,0,1.4-0.1,2.1-0.3c0.3-0.1,0.6-0.1,1-0.1c1.3-0.2,2.5-0.5,3.8-0.8
			c0.5-0.1,1-0.3,1.6-0.3c0.2,0,0.4-0.1,0.5-0.1c0.2,0,0.3-0.1,0.5-0.1c0.1,0,0.2,0,0.3,0c0.4-0.2,0.9-0.3,1.3-0.4c1-0.4,2-0.7,3-1
			c0.3-0.1,0.7-0.2,1-0.4c0.3-0.1,0.6-0.3,1-0.4c2.3-1,4.5-1.9,6.7-3.1c0.1,0,0.2-0.1,0.3-0.1c0.8-0.4,1.6-0.8,2.4-1.3
			c1.5-0.8,3-1.7,4.5-2.6c0.2-0.1,0.5-0.3,0.8-0.4c0.1,0,0.1-0.1,0.2-0.1c0.2-0.1,0.3-0.2,0.5-0.3c1.8-1.1,3.7-2.2,5.5-3.2
			c3.5-2.1,7-4.1,10.6-6c0.2-0.1,0.4-0.2,0.5-0.3c0.3-0.1,0.6-0.3,0.8-0.4c0.3-0.1,0.5-0.3,0.8-0.5c0.1-0.1,0.2-0.2,0.4-0.2
			c2.3-1.2,4.5-2.4,6.9-3.5c0.3-0.1,0.5-0.3,0.8-0.4c0.1,0,0.1-0.1,0.2-0.1c0.4-0.2,0.7-0.4,1.1-0.5c0.3-0.2,0.7-0.3,1.1-0.4
			c0.3-0.2,0.7-0.4,1.1-0.6c2-0.9,4.1-1.8,6.2-2.6c0.4-0.2,0.8-0.3,1.3-0.5c0.4-0.2,0.9-0.2,1.3-0.5c0.3-0.1,0.6-0.1,0.9-0.3
			c0.1,0,0.1,0,0.2,0c0.1,0,0.2,0,0.2-0.1c0.4-0.3,0.9-0.4,1.4-0.6c2.2-0.7,4.5-1.3,6.8-1.9c0.5-0.1,0.9-0.2,1.4-0.2
			c0.1,0,0.2,0,0.2-0.1c0.3-0.2,0.7-0.2,1-0.2c0.2,0,0.3,0,0.5-0.1s0.5-0.2,0.7-0.2s0.3,0,0.5,0s0.3-0.1,0.5-0.1
			c0.6-0.1,1.1-0.2,1.7-0.3c0.5,0,1.1-0.1,1.6-0.2c0.4,0,0.7-0.1,1.1-0.1c1.7-0.1,3.4,0,5.1,0c0.5,0,1,0,1.5,0.1c0.1,0,0.2,0,0.3,0
			c0.9,0.1,1.8,0.2,2.7,0.3c1.7,0.3,3.4,0.7,5.1,1.2c3.1,1,6,2.3,8.7,4.1c2.5,1.6,4.8,3.5,7,5.5c2.7,2.6,5.1,5.4,7.3,8.3
			c4.6,6.2,8.2,12.9,10.8,20.1c1.7,4.7,2.9,9.5,3.6,14.5c0.1,0.4,0.1,0.9,0.2,1.3c0,0.4,0.1,0.9,0.1,1.3c0.1,0.5,0.1,1,0.1,1.5
			c0,0,0,0,0,0.1c0,0.9,0,1.9,0,2.8c0,0.1,0,0.1,0,0.2c0,0.1,0.1,0.1,0.1,0.2c0,0.6,0,1.2,0,1.8c-0.1,0.1-0.1,0.2-0.1,0.3
			c0,0.4,0,0.7,0,1.1c0-0.1-0.1-0.1-0.1-0.1c-0.1-0.5-0.2-0.9-0.3-1.4c-0.1-0.7-0.3-1.5-0.5-2.2c-0.2-0.9-0.5-1.8-0.7-2.7
			c-0.3-0.9-0.6-1.8-0.9-2.7c-0.3-0.7-0.6-1.4-0.9-2c-0.3-0.7-0.7-1.3-1-2c-0.4-0.8-0.9-1.5-1.4-2.2c-0.4-0.6-0.8-1.2-1.3-1.7
			c-1-1.1-2.1-2.2-3.3-3.1c-1.4-1-2.9-1.9-4.5-2.6c-1.5-0.7-3.1-1.2-4.7-1.6c-0.4-0.1-0.8-0.2-1.2-0.2c-0.3,0-0.5-0.1-0.8-0.1
			c-0.8-0.2-1.6-0.3-2.4-0.4c-0.1,0-0.2,0-0.4,0c-0.3-0.1-0.5-0.1-0.8-0.1s-0.5,0-0.8,0c-0.4-0.1-0.9-0.1-1.3-0.1
			c-0.8,0-1.6,0-2.5,0c-0.2,0-0.3,0-0.5,0c-0.4,0.1-0.9,0.1-1.3,0.1c-0.4,0-0.7,0-1.1,0.1c-0.1,0-0.2,0-0.4,0
			c-0.5,0-0.9,0.1-1.3,0.1c-0.1,0-0.1,0-0.2,0c-0.2,0.1-0.5,0.1-0.7,0.1c-0.3,0-0.7,0-1,0.1c-0.4,0.1-0.8,0.2-1.3,0.2
			c-0.1,0-0.1,0-0.2,0c-0.5,0.1-1,0.2-1.5,0.2c-0.2,0-0.5,0.1-0.7,0.1c-0.1,0-0.2,0-0.3,0.1c-0.5,0.1-1.1,0.2-1.6,0.3
			c-0.1,0-0.2,0.1-0.3,0.1c-0.2,0.1-0.4,0.2-0.6,0.2c-0.4,0-0.7,0.1-1.1,0.2c-0.5,0.2-1.1,0.3-1.7,0.4c-1.2,0.3-2.3,0.5-3.5,1h-0.1
			c-0.5,0.1-1,0.2-1.5,0.4c-0.1,0-0.2,0.1-0.4,0.1c-0.3,0.1-0.6,0.2-0.9,0.3c-0.7,0.2-1.3,0.5-2,0.6c-0.2,0-0.4,0.1-0.6,0.2
			c-0.2,0.2-0.5,0.2-0.8,0.3c-0.6,0.2-1.3,0.4-1.9,0.6c-0.4,0.1-0.9,0.3-1.3,0.5c-0.3,0.1-0.6,0.2-0.9,0.3c-0.4,0.1-0.7,0.2-1,0.4
			c-0.3,0.1-0.6,0.2-0.9,0.4c-0.7,0.3-1.4,0.6-2.1,0.8c-1,0.3-2,0.8-3,1.2c-0.7,0.3-1.4,0.6-2.2,0.9c-0.3,0.1-0.7,0.3-1,0.5
			c-0.1,0.1-0.3,0.1-0.4,0.2c-0.4,0.1-0.8,0.3-1.2,0.5c-0.1,0.1-0.3,0.2-0.4,0.2c-0.4,0.1-0.8,0.3-1.2,0.5c-0.3,0.1-0.5,0.2-0.8,0.3
			s-0.5,0.2-0.8,0.3c-0.5,0.2-0.9,0.5-1.4,0.6c-0.5,0.2-0.9,0.4-1.3,0.6c-0.4,0.2-0.8,0.4-1.2,0.6c-0.5,0.2-0.9,0.4-1.3,0.6
			c-0.4,0.2-0.8,0.4-1.3,0.6c-0.4,0.2-0.7,0.4-1.1,0.5c-0.4,0.2-0.8,0.3-1.2,0.5c-0.3,0.1-0.5,0.2-0.8,0.3c-0.2,0.1-0.5,0.3-0.7,0.4
			c-0.1,0-0.1,0.1-0.2,0.1c-4.5,2.3-9,4.5-13.5,6.8c-0.2,0.1-0.4,0.2-0.6,0.4c-0.5,0.3-0.9,0.5-1.4,0.8c-0.8,0.4-1.7,0.8-2.5,1.3
			c-0.3,0.2-0.6,0.4-1,0.5c-0.5,0.3-1,0.6-1.5,0.8c-0.4,0.1-0.7,0.3-1,0.5c-0.4,0.2-0.8,0.5-1.2,0.7c-1,0.5-1.9,1-2.9,1.5
			c-0.2,0.1-0.3,0.2-0.5,0.3c-0.7,0.5-1.5,0.9-2.3,1.3c-0.2,0.1-0.4,0.2-0.5,0.3c-0.5,0.4-1.1,0.6-1.7,0.9c-0.3,0.1-0.6,0.3-0.9,0.5
			c-0.4,0.2-0.8,0.4-1.2,0.6c-0.3,0.2-0.7,0.3-1,0.5c-0.1,0.1-0.2,0.1-0.3,0.2c-0.2,0.1-0.4,0.2-0.6,0.3c-0.7,0.4-1.5,0.9-2.2,1.3
			c-0.1,0.1-0.1,0.1-0.2,0.2c-0.1,0.2-0.4,0.3-0.6,0.3c-0.9,0.3-1.7,0.7-2.6,1.1c-1.6,0.8-3.1,1.5-4.7,2.3c-0.3,0.1-0.6,0.3-0.8,0.4
			c-0.1,0-0.2,0.1-0.3,0.1c-0.2,0.1-0.5,0.3-0.7,0.4c-1.4,0.7-2.7,1.4-4.1,2.1c-1.3,0.7-2.7,1.4-4,2.1c-0.3,0.2-0.7,0.4-1,0.5
			c-0.4,0.1-0.7,0.4-1,0.5c-0.5,0.2-1,0.5-1.5,0.7c-1.5,0.8-3,1.5-4.5,2.2s-3,1.4-4.5,2.1c-0.4,0.2-0.7,0.3-1.1,0.4
			c-0.1,0-0.1,0-0.2,0.1c-0.5,0.3-0.9,0.5-1.4,0.7c-3.8,1.7-7.7,3.1-11.7,4.4c-1.1,0.3-2.1,0.7-3.2,0.9c-0.1,0-0.2,0-0.2,0.1
			c-0.3,0.1-0.5,0.2-0.8,0.3c-1.9,0.5-3.9,0.9-5.9,1.2c-0.5,0.1-1,0.1-1.5,0.2c-0.7,0.1-1.3,0.2-2,0.2c-0.1,0-0.2,0-0.2,0
			c-0.5,0.1-1.1,0.1-1.6,0.2c-0.6,0-1.1,0-1.7,0.1c-0.2,0-0.4,0-0.5,0c-0.3,0.1-0.6,0.1-0.9,0.1c-0.8,0-1.7,0-2.5,0
			c-0.2,0-0.3,0-0.5,0c-0.5-0.1-0.9-0.1-1.4-0.1c-0.8-0.1-1.6,0-2.3-0.2c0,0,0,0-0.1,0c-0.7,0-1.3-0.1-1.9-0.2
			c-0.7-0.1-1.4-0.2-2.1-0.4c-1.9-0.4-3.7-0.8-5.5-1.4c-2.5-0.8-5-1.9-7.3-3.1c-4.3-2.2-8.2-4.9-11.8-7.9c-0.8-0.6-1.5-1.3-2.3-2
			c-0.7-0.6-1.4-1.3-2.1-2c-1.5-1.4-2.9-3-4.2-4.6c-1.5-1.8-2.8-3.8-4-5.8c-2.5-4.2-4.4-8.7-5.6-13.5c-0.2-0.8-0.4-1.6-0.6-2.4
			c-0.2-0.8-0.4-1.7-0.5-2.5c-0.2-0.8-0.3-1.6-0.4-2.5c-0.1-0.7-0.2-1.5-0.3-2.2c0-0.3,0-0.5-0.1-0.8c0-0.2,0-0.4-0.1-0.6
			c-0.1-0.5-0.1-1-0.2-1.5c0-0.4,0-0.9,0-1.3c0-0.2,0-0.4,0-0.5c-0.1-0.6-0.1-1.1-0.1-1.7c0-0.3-0.1-0.5-0.1-0.8l-0.1-0.1
			c0-1.2,0-2.5,0-3.7c0.1,0,0.1-0.1,0.1-0.2c0.1-0.5,0.1-0.9,0.1-1.4c0-0.3,0-0.7,0.1-1c0-0.2,0-0.4,0.1-0.7c0-0.3,0-0.6,0-0.9
			c0-0.6,0.1-1.3,0.1-1.9c0.1-0.4,0.1-0.8,0.1-1.2c0-0.2,0-0.5,0.1-0.7c0.1-0.6,0.2-1.2,0.2-1.8c0,0,0,0,0-0.1
			c0.1-0.8,0.2-1.6,0.3-2.4c0-0.2,0.1-0.4,0.1-0.7c0.1-0.6,0.1-1.1,0.3-1.7c0.1-0.5,0.2-0.9,0.2-1.4c0.1-0.5,0.2-0.9,0.2-1.4
			c0.1-0.3,0.1-0.7,0.2-1c0.1-0.7,0.3-1.4,0.5-2.2c0.1-0.6,0.2-1.2,0.4-1.8c0.1-0.5,0.3-1,0.4-1.5c0.2-0.7,0.3-1.4,0.5-2.1
			c0.9-3.3,1.8-6.7,2.9-9.9c0.6-1.8,1.2-3.5,1.8-5.3c0.2-0.6,0.5-1.1,0.6-1.7c0-0.1,0-0.1,0.1-0.2c0.6-1.4,1.1-2.9,1.7-4.3
			c1-2.4,2-4.8,3-7.2c0.2-0.4,0.4-0.9,0.6-1.3c0.3-0.4,0.4-0.9,0.6-1.4c0-0.1,0.1-0.1,0.1-0.2c0.1-0.3,0.2-0.5,0.4-0.8
			c1.4-3,2.9-6,4.4-8.9c0.1-0.3,0.3-0.5,0.4-0.7c0.2-0.2,0.2-0.5,0.4-0.8c0.2-0.4,0.4-0.8,0.6-1.2c1.9-3.5,3.9-6.9,5.9-10.2
			c0.1-0.2,0.3-0.4,0.4-0.6c0.1-0.2,0.2-0.4,0.3-0.6c1.6-2.6,3.3-5.2,5-7.8c0.7-1.1,1.4-2.1,2.2-3.2c0.3-0.4,0.7-0.8,0.9-1.3
			c0.9-1.3,1.9-2.6,2.8-3.9c3.1-4.3,6.4-8.4,9.8-12.5c0.7-0.8,1.3-1.6,2-2.3c0,0,0-0.1,0.1-0.1c0.4-0.5,0.8-1,1.3-1.5
			c3-3.4,6-6.7,9.2-9.8c3.1-3.1,6.2-6,9.5-8.9c0.3-0.2,0.5-0.5,0.8-0.7c0.2-0.1,0.4-0.2,0.6-0.4s0.3-0.4,0.5-0.5
			c0.4-0.4,0.9-0.8,1.4-1.1c0.4-0.3,0.8-0.6,1.2-1c0.4-0.3,0.8-0.6,1.2-1c0.4-0.3,0.8-0.6,1.2-0.9c0.4-0.3,0.8-0.6,1.2-0.9
			c0.4-0.3,0.8-0.6,1.2-0.9c0.4-0.3,0.8-0.6,1.2-0.9c0.4-0.3,0.8-0.6,1.2-0.9c1.5-1.1,3-2.1,4.5-3.1c3.7-2.4,7.5-4.6,11.4-6.5
			c3.5-1.7,7.1-3.1,10.8-4.3c1.8-0.5,3.6-1,5.5-1.4c0.8-0.2,1.6-0.3,2.4-0.4c0.3-0.1,0.6-0.1,1-0.1s0.8-0.1,1.2-0.2
			C130.3,10.1,132.1,10,132.2,10z"/>
		
			<linearGradient id="SVGID_00000039815170031312097280000016602187970389175450_" gradientUnits="userSpaceOnUse" x1="248.0537" y1="33.9994" x2="141.9603" y2="72.6143" gradientTransform="matrix(1 0 0 -1 0 246)">
			<stop  offset="0" style="stop-color:#6CD9DB"/>
			<stop  offset="1" style="stop-color:#7400EE"/>
		</linearGradient>
		<path style="fill:url(#SVGID_00000039815170031312097280000016602187970389175450_);" d="M130.1,206c0-0.1,0.1-0.2,0.2-0.2
			c0.7-0.4,1.5-0.9,2.2-1.3c0.2-0.1,0.4-0.2,0.6-0.3c0.1-0.1,0.2-0.1,0.3-0.2c0.3-0.2,0.6-0.4,1-0.5c0.4-0.2,0.8-0.4,1.2-0.6
			c0.3-0.2,0.6-0.3,0.9-0.5c0.6-0.3,1.2-0.6,1.7-0.9c0.2-0.1,0.4-0.2,0.5-0.3c0.8-0.4,1.6-0.8,2.3-1.3c0.2-0.1,0.3-0.2,0.5-0.3
			c1-0.5,1.9-1,2.9-1.5c0.4-0.2,0.8-0.4,1.2-0.7c0.3-0.2,0.7-0.4,1-0.5c0.5-0.2,1-0.5,1.5-0.8c0.3-0.2,0.6-0.4,1-0.5
			c0.8-0.4,1.7-0.8,2.5-1.3c0.5-0.2,0.9-0.5,1.4-0.8c0.2-0.1,0.4-0.2,0.6-0.4c4.5-2.3,9-4.5,13.5-6.8c0.1,0,0.1-0.1,0.2-0.1
			c0.2-0.1,0.5-0.3,0.7-0.4c0.2-0.1,0.5-0.2,0.8-0.3c0.4-0.2,0.8-0.4,1.2-0.5s0.7-0.3,1.1-0.5c0.4-0.2,0.8-0.4,1.3-0.6
			c0.4-0.2,0.9-0.4,1.3-0.6c0.4-0.2,0.8-0.4,1.2-0.6c0.4-0.2,0.9-0.4,1.3-0.6c0.5-0.2,0.9-0.4,1.4-0.6c0.3-0.1,0.5-0.2,0.8-0.3
			s0.5-0.2,0.8-0.3c0.4-0.2,0.8-0.4,1.2-0.5c0.2,0,0.3-0.1,0.4-0.2c0.4-0.2,0.8-0.4,1.2-0.5c0.1,0,0.3-0.1,0.4-0.2
			c0.3-0.2,0.7-0.3,1-0.5c0.7-0.3,1.4-0.6,2.2-0.9c1-0.4,2-0.9,3-1.2c0.7-0.2,1.4-0.6,2.1-0.8c0.3-0.1,0.6-0.2,0.9-0.4
			c0.3-0.1,0.7-0.3,1-0.4c0.3-0.1,0.6-0.2,0.9-0.3c0.4-0.2,0.9-0.3,1.3-0.5c0.6-0.2,1.3-0.4,1.9-0.6c0.3-0.1,0.5-0.2,0.8-0.3
			c0.2-0.1,0.4-0.2,0.6-0.2c0.7-0.1,1.3-0.4,2-0.6c0.3-0.1,0.6-0.2,0.9-0.3c0.1,0,0.2,0,0.4-0.1c0.5-0.2,1-0.3,1.5-0.4h0.1
			c1.1-0.4,2.3-0.6,3.5-1c0.6-0.2,1.1-0.3,1.7-0.4c0.3-0.1,0.7-0.2,1.1-0.2c0.2,0,0.4-0.1,0.6-0.2c0.1,0,0.2-0.1,0.3-0.1
			c0.5-0.1,1.1-0.2,1.6-0.3c0.1,0,0.2,0,0.3-0.1c0.2-0.1,0.5-0.1,0.7-0.1c0.5,0,1-0.2,1.5-0.2c0.1,0,0.1,0,0.2,0
			c0.4,0,0.9-0.1,1.3-0.2c0.3-0.1,0.7-0.1,1-0.1c0.2,0,0.5,0,0.7-0.1c0.1,0,0.1,0,0.2,0c0.5,0,0.9-0.1,1.3-0.1c0.1,0,0.2,0,0.4,0
			c0.4-0.1,0.7-0.1,1.1-0.1c0.4,0,0.9,0,1.3-0.1c0.2,0,0.3,0,0.5,0c0.8,0,1.6,0,2.5,0c0.4,0,0.9,0,1.3,0.1c0.3,0,0.5,0,0.8,0
			s0.5,0,0.8,0.1c0.1,0,0.2,0,0.4,0c0.8,0,1.6,0.2,2.4,0.4c0.3,0.1,0.5,0.1,0.8,0.1c0.4,0.1,0.8,0.1,1.2,0.2
			c1.6,0.4,3.2,0.9,4.7,1.6c1.6,0.7,3.1,1.6,4.5,2.6c1.2,0.9,2.3,2,3.3,3.1c0.5,0.5,0.9,1.1,1.3,1.7c0.5,0.7,1,1.4,1.4,2.2
			c0.4,0.6,0.7,1.3,1,2s0.6,1.3,0.9,2c0.3,0.9,0.7,1.8,0.9,2.7c0.3,0.9,0.5,1.8,0.7,2.7c0.2,0.7,0.3,1.5,0.5,2.2
			c0.1,0.5,0.2,0.9,0.3,1.4c0,0,0,0.1,0.1,0.1c0-0.4,0-0.7,0-1.1c0-0.1,0-0.2,0.1-0.3c0,0.9,0,1.9,0,2.8c-0.1,0-0.1,0.1-0.1,0.1
			c0,0.6,0,1.1-0.1,1.6c0,0.1,0,0.2,0,0.2c0,0.5-0.1,1.1-0.2,1.6c0,0.1,0,0.1,0,0.2c-0.1,0.5-0.1,1-0.2,1.6
			c-0.1,0.8-0.3,1.6-0.5,2.3c-0.4,1.7-0.9,3.4-1.6,5c-0.9,2.2-1.9,4.4-3.2,6.4c-0.8,1.3-1.7,2.6-2.8,3.7c-0.1,0.1-0.1,0.2-0.2,0.2
			c-0.4,0.6-0.9,1.1-1.4,1.6c-1.4,1.3-2.8,2.5-4.3,3.6c-1.5,1-3,2-4.7,2.8c-0.5,0.2-1,0.5-1.5,0.7c-0.1,0.1-0.3,0.2-0.4,0.2
			c-0.3,0.1-0.6,0.2-0.8,0.3c-0.3,0.2-0.7,0.3-1,0.4c-0.5,0.2-1.1,0.4-1.6,0.6c-1.6,0.6-3.3,1-5,1.3c-0.4,0.1-0.8,0.1-1.2,0.2
			c-0.2,0-0.5,0.1-0.7,0.1c-0.4,0-0.9,0.1-1.3,0.1c-0.4,0-0.7,0.1-1.1,0.3c-1.4,0-2.9,0-4.3,0c-0.1-0.1-0.3-0.1-0.4-0.2
			c-0.1-0.1-0.2-0.1-0.3-0.1c-0.2,0-0.4,0-0.6,0c-0.7,0-1.3,0-2-0.1c-0.3,0-0.6-0.1-0.9-0.2c-0.3-0.1-0.6-0.1-0.8-0.2
			c-0.3-0.1-0.6-0.1-0.9-0.1c-0.1,0-0.3,0-0.4-0.1c-0.9-0.2-1.7-0.4-2.6-0.6c-1.2-0.3-2.3-0.6-3.4-1c-0.2-0.1-0.3-0.1-0.4-0.2
			c-0.1-0.1-0.3-0.2-0.4-0.2c-0.1,0-0.2,0-0.3-0.1s-0.3-0.1-0.4-0.1c-0.1,0-0.3-0.1-0.4-0.1c-0.1-0.1-0.2-0.1-0.3-0.1
			s-0.2-0.1-0.3-0.1c-0.1-0.1-0.3-0.1-0.4-0.1c-0.1,0-0.2-0.1-0.3-0.1s-0.2-0.1-0.3-0.1c-0.2,0-0.4-0.1-0.6-0.2
			c-1.6-0.6-3.2-1.2-4.7-1.9c-0.3-0.1-0.6-0.3-0.9-0.5c-0.1,0-0.1-0.1-0.2-0.1c-0.2-0.1-0.5-0.3-0.7-0.3c-0.2-0.1-0.5-0.2-0.7-0.3
			s-0.3-0.1-0.4-0.2c-0.2-0.1-0.4-0.2-0.6-0.4c-0.2-0.1-0.5-0.2-0.7-0.3c-2.4-1.2-4.8-2.4-7.2-3.7c-0.3-0.2-0.6-0.3-0.9-0.5
			c-0.3-0.2-0.6-0.3-0.9-0.5c-0.3-0.2-0.6-0.3-0.9-0.5c-0.3-0.2-0.6-0.3-1-0.5c-0.3-0.2-0.6-0.3-0.9-0.5c-0.3-0.2-0.6-0.3-0.9-0.5
			c-0.5-0.3-1-0.6-1.6-0.8c-2.3-1.2-4.5-2.4-6.9-3.5c-2.7-1.3-5.4-2.6-8.2-3.7c-3.2-1.3-6.4-2.3-9.8-3.1c-1-0.2-2-0.4-3-0.5
			c-0.8-0.1-1.7-0.2-2.6-0.3c-0.2,0-0.3,0-0.5,0c-1.1,0-2.2,0-3.3,0c-0.4,0-0.9,0-1.3,0.1c-0.1,0-0.2,0-0.3,0
			c-0.5,0-0.9,0.1-1.4,0.2c-1.2,0.2-2.4,0.4-3.6,0.8c-0.6,0.2-1.3,0.4-1.9,0.6c-0.3,0.1-0.6,0.1-0.8,0.3
			C130.3,205.9,130.2,205.9,130.1,206z"/>
		
			<linearGradient id="SVGID_00000085228744176118154070000013978776072344086453_" gradientUnits="userSpaceOnUse" x1="71.1" y1="167.4" x2="211.6445" y2="167.4" gradientTransform="matrix(1 0 0 -1 0 246)">
			<stop  offset="0" style="stop-color:#6CD9DB"/>
			<stop  offset="1" style="stop-color:#7400EE"/>
		</linearGradient>
		<path style="fill:url(#SVGID_00000085228744176118154070000013978776072344086453_);" d="M202.1,53.5c0,0.1,0.1,0.1,0.1,0.2
			c0,0.1,0,0.3,0,0.4c0,0.2,0.1,0.4,0.3,0.5s0.4,0.3,0.6,0.5c0.1,0.1,0.2,0.2,0.2,0.3c1.5,2.3,2.9,4.6,4.2,7.1
			c1.2,2.4,2.3,4.9,3,7.5c0.4,1.4,0.7,2.8,0.9,4.2c0.1,0.6,0.2,1.2,0.2,1.8c0,0.1,0,0.2,0,0.4c0.1,0.9,0,1.7,0,2.6
			c-0.1,1.7-0.4,3.4-0.9,5c-1.1,3.2-3.1,5.9-5.8,7.9c-1.8,1.3-3.8,2.3-5.9,3c-1.5,0.5-3.1,0.9-4.7,1.1c-0.8,0.1-1.6,0.2-2.4,0.3
			c-0.9,0.1-1.8,0.2-2.8,0.1c-0.8,0-1.6,0-2.4,0c-0.6,0-1.3,0-1.9-0.1c-0.8-0.1-1.6-0.1-2.4-0.2c-2.3-0.3-4.7-0.7-7-1.3
			c-3-0.7-5.9-1.6-8.7-2.6c-2.7-1-5.4-2.1-8-3.3c-0.3-0.2-0.7-0.4-1-0.5c-0.4-0.1-0.7-0.3-1.1-0.5c-0.4-0.2-0.7-0.3-1.1-0.5
			c-0.4-0.2-0.7-0.4-1.2-0.5c-0.2-0.2-0.5-0.3-0.8-0.4c-1.5-0.6-2.9-1.2-4.4-1.7c-0.9-0.3-1.9-0.7-2.8-0.9c-0.2-0.1-0.4-0.1-0.6-0.2
			c-0.2-0.1-0.3-0.1-0.5-0.1s-0.3-0.1-0.5-0.1c-1.7-0.4-3.4-0.9-5.1-1.1c-0.5-0.1-0.9-0.2-1.4-0.2c-0.5-0.1-1.1-0.1-1.6-0.2
			c-0.7-0.1-1.4-0.1-2.1-0.2c-0.3,0-0.6-0.1-0.9-0.1c-0.2,0-0.4,0-0.6,0c-1.2,0-2.3,0-3.5-0.1c-0.1,0-0.3,0-0.4,0
			c-0.3,0-0.6,0.1-0.9,0.1c-0.8,0-1.6,0-2.5,0c-0.3,0-0.6,0-0.8,0.1c-0.4,0-0.8,0.1-1.2,0.1c-0.2,0-0.5,0-0.7,0
			c-0.9,0.2-1.8,0.2-2.7,0.4c-0.3,0.1-0.7,0.1-1,0.2c-0.8,0.2-1.6,0.3-2.4,0.5c-0.2,0-0.3,0.1-0.5,0.1s-0.4,0.1-0.6,0.2
			c-0.1,0-0.2,0.1-0.3,0.1c-0.7,0.2-1.5,0.4-2.2,0.6h-0.1c-0.7,0.1-1.4,0.4-2,0.7c-0.7,0.3-1.3,0.5-2,0.7c-0.6,0.2-1.3,0.5-1.9,0.7
			c-2.6,1.1-5.2,2.4-7.6,3.8c-0.6,0.3-1.1,0.7-1.7,1c-0.3,0.2-0.5,0.3-0.8,0.5c-0.1,0.1-0.2,0.1-0.3,0.2c-0.2,0.2-0.4,0.3-0.6,0.5
			s-0.4,0.3-0.7,0.5c-1,0.7-2,1.4-2.9,2.2c-0.4,0.4-0.9,0.7-1.3,1c-0.4,0.4-0.9,0.7-1.3,1.1c-0.1,0.1-0.2,0.2-0.3,0.3
			c-0.5,0.3-0.9,0.7-1.3,1.1c-1,1-2,2-2.9,2.9c-0.3,0.3-0.5,0.6-0.8,0.9c-0.1,0.2-0.3,0.3-0.4,0.5c-0.4,0.4-0.8,0.8-1.1,1.3
			c0,0.1-0.1,0.1-0.2,0.2c-0.9,1.1-1.8,2.2-2.6,3.4c-0.5,0.7-1,1.4-1.5,2.2c-0.7,1.1-1.4,2.2-2,3.4c-0.2,0.5-0.5,0.9-0.7,1.3
			c-0.1,0.2-0.2,0.4-0.3,0.6c-0.1,0.2-0.2,0.4-0.3,0.6c-0.9,1.8-1.6,3.7-2.3,5.6c-0.4,1.3-0.7,2.5-1.1,3.8c-0.2,0.7-0.3,1.5-0.5,2.2
			c0,0.5-0.1,0.9-0.2,1.4c0,0.3,0,0.6-0.1,0.9c0,0.2,0,0.4-0.1,0.6c-0.1,0.1-0.1,0.3-0.1,0.5c0,0.4,0,0.9,0,1.3c0,0.1,0,0.3,0,0.4
			c-0.1-0.1-0.1-0.1-0.2-0.3c0-0.1,0-0.2,0-0.3c0-0.6,0-1.1,0-1.7c0-0.2,0-0.4,0.1-0.6c0.1-0.2,0.1-0.4,0.1-0.5c0-0.8,0-1.6,0-2.4
			c0-0.6,0-1.2,0-1.8c0-0.2,0-0.4,0.1-0.5c0.1-0.5,0.2-0.9,0.2-1.4c0-0.2,0-0.4,0-0.6c0-0.6,0-1.2,0.2-1.8c0.1-0.2,0.1-0.4,0.1-0.7
			c0-0.5,0-0.9,0.2-1.4c0.1-0.3,0.1-0.5,0.1-0.8c0-0.4,0-0.7,0.1-1.1c0.1-0.2,0.1-0.5,0.1-0.7s0-0.4,0.1-0.6
			c0.1-0.4,0.2-0.8,0.2-1.3c0-0.1,0-0.2,0-0.2c0.1-0.4,0.2-0.8,0.2-1.3c0-0.2,0.1-0.3,0.1-0.5c0.1-0.2,0.1-0.5,0.1-0.7
			c0-0.1,0-0.2,0-0.4c0.2-0.9,0.3-1.8,0.6-2.6c0.1-0.2,0.1-0.5,0.1-0.7c0-0.1,0-0.3,0.1-0.4c0.1-0.3,0.2-0.6,0.3-0.9
			c0.2-0.8,0.4-1.6,0.6-2.4c0.1-0.5,0.2-0.9,0.3-1.4c0.2-0.7,0.3-1.3,0.5-1.9c0.2-0.8,0.4-1.5,0.6-2.3c0.1-0.2,0.1-0.4,0.2-0.6
			c0.2-0.7,0.4-1.4,0.7-2.1c0.2-0.7,0.4-1.4,0.7-2c0.2-0.6,0.4-1.3,0.7-1.9c0.5-1.3,0.9-2.5,1.4-3.8c0.5-1.4,1.1-2.7,1.7-4.1
			c0.1-0.2,0.2-0.4,0.3-0.7c0.3-0.5,0.5-1.1,0.7-1.7c0.1-0.2,0.1-0.3,0.2-0.4c0.2-0.3,0.3-0.5,0.4-0.8c0.5-1.1,1-2.1,1.6-3.2
			c0.3-0.5,0.5-1,0.8-1.5c0.4-0.8,0.9-1.6,1.3-2.4s0.9-1.6,1.3-2.4s0.9-1.6,1.4-2.3c1.3-2.1,2.6-4.2,4-6.2c0.6-0.9,1.2-1.7,1.8-2.6
			c0.1-0.1,0.2-0.2,0.2-0.3c0.1-0.1,0.2-0.2,0.2-0.3c0.1-0.2,0.2-0.4,0.3-0.5c0.5-0.7,1-1.3,1.5-1.9c0.4-0.6,0.9-1.1,1.3-1.7
			c0.1-0.1,0.1-0.2,0.2-0.2c0.2-0.3,0.4-0.6,0.7-0.9c0.3-0.3,0.5-0.6,0.7-0.9c0.1-0.1,0.1-0.2,0.2-0.2c0.6-0.6,1.1-1.2,1.6-1.8
			c0.3-0.3,0.5-0.6,0.8-0.8c0.1-0.1,0.2-0.2,0.3-0.4c0.2-0.3,0.4-0.5,0.7-0.8c0.9-1,1.9-1.9,2.8-2.9c0.2-0.2,0.3-0.4,0.5-0.6
			c0.2-0.2,0.4-0.3,0.6-0.5c0.5-0.5,1.1-1.1,1.7-1.5c0.5-0.4,0.9-0.8,1.3-1.2c0.1-0.1,0.2-0.2,0.3-0.2c0.1,0,0.1-0.1,0.2-0.1
			c0.9-0.9,1.8-1.6,2.8-2.4c0.1-0.1,0.2-0.1,0.2-0.2c0.3-0.2,0.6-0.4,0.9-0.7c0.1-0.1,0.2-0.2,0.3-0.2c0.9-0.6,1.7-1.3,2.6-1.9
			c1-0.7,2.1-1.4,3.2-2.1c0.2-0.1,0.4-0.2,0.5-0.3c0.7-0.5,1.4-0.8,2.1-1.3c0.4-0.1,0.7-0.4,1.1-0.6c0.4-0.2,0.7-0.4,1.1-0.6
			c0.7-0.4,1.3-0.7,2-1c0.1-0.1,0.2-0.1,0.3-0.1c0.1-0.1,0.3-0.1,0.4-0.2c0.2-0.2,0.5-0.3,0.7-0.4c0.5-0.2,1-0.4,1.5-0.6
			c0.6-0.3,1.2-0.5,1.8-0.7c0,0,0,0,0.1,0c1-0.5,2.1-0.8,3.1-1.1c0.6-0.2,1.2-0.4,1.9-0.6c0.2-0.1,0.4-0.1,0.6-0.1
			c0.1,0,0.2,0,0.3-0.1c0.8-0.2,1.5-0.4,2.3-0.6c0.5-0.1,1-0.1,1.4-0.3c0.1,0,0.2,0,0.2,0c0.2,0,0.4,0,0.5-0.1
			c0.3-0.1,0.6-0.1,1-0.1c0.3,0,0.6,0,0.8-0.2c0.1-0.1,0.2-0.1,0.3-0.1c0.2,0,0.4,0,0.7,0s0.7,0,1-0.1s0.6-0.1,1-0.1
			c2.2,0,4.5,0,6.7,0c0.4,0,0.9,0,1.3,0c0.2,0,0.5,0,0.7,0.1c0.3,0.1,0.6,0.1,0.8,0.1s0.3,0,0.5,0c0.3,0,0.7,0,1,0.1
			c0.2,0.1,0.4,0.1,0.6,0.1c0.3,0,0.6,0,0.8,0.1s0.3,0.1,0.5,0.1c0.3,0,0.5,0.1,0.8,0.2c0.4,0.1,0.8,0.2,1.2,0.3
			c0.8,0.2,1.6,0.4,2.4,0.6c0.1,0,0.3,0.1,0.4,0.1c0.8,0.3,1.7,0.6,2.5,0.8c1,0.3,2,0.7,2.9,1.2c0.2,0.1,0.3,0.1,0.5,0.2
			c0.3,0.1,0.5,0.2,0.7,0.3c1,0.5,2,1,3,1.5c0.2,0.1,0.4,0.2,0.5,0.3c0.4,0.3,0.8,0.5,1.2,0.7c0.1,0,0.2,0.1,0.3,0.1
			c0.6,0.4,1.2,0.7,1.8,1.1c0.8,0.5,1.6,1,2.3,1.6c0.2,0.1,0.3,0.2,0.4,0.3c0.3,0.2,0.6,0.4,0.9,0.7c0.5,0.4,0.9,0.7,1.4,1.1
			c0.6,0.4,1.1,0.9,1.6,1.3c0.2,0.1,0.3,0.3,0.5,0.5c0.3,0.3,0.5,0.5,0.8,0.7c0.2,0.1,0.3,0.2,0.4,0.3c0.2,0.2,0.4,0.4,0.7,0.6
			c0.4,0.3,0.7,0.7,1.1,1l0.1,0.1c0.4,0.2,0.6,0.5,0.9,0.8c0.9,0.9,1.7,1.7,2.6,2.6c0.2,0.2,0.5,0.5,0.7,0.8c0.3,0.4,0.6,0.7,0.9,1
			c0.3,0.3,0.7,0.7,1,1c0.1,0.1,0.3,0.3,0.4,0.4c0.3,0.4,0.5,0.7,0.9,1c0.3,0.3,0.5,0.5,0.8,0.9c0.1,0.2,0.3,0.4,0.5,0.6
			c0.2,0.2,0.4,0.5,0.6,0.7c0.1,0.1,0.1,0.2,0.2,0.3c0.5,0.5,0.9,1.1,1.4,1.6c0.1,0.1,0.1,0.2,0.2,0.2c0.3,0.4,0.6,0.8,1,1.3
			c0.1,0.1,0.2,0.2,0.3,0.2C201.9,53.7,202,53.6,202.1,53.5C202,53.5,202,53.5,202.1,53.5z"/>
		<path class="st8" d="M188.4,161.4c0.1,0,0.1,0,0.2,0.1C188.5,161.5,188.4,161.5,188.4,161.4z"/>
		<path class="st8" d="M189.1,161.6c0.1,0,0.2,0,0.2,0.1C189.2,161.8,189.1,161.7,189.1,161.6z"/>
		<path class="st8" d="M189.8,161.9c0.1,0,0.2,0,0.3,0.1C189.9,162,189.9,162,189.8,161.9z"/>
		<path class="st8" d="M190.5,162.1c0.1,0,0.2,0,0.3,0.1C190.7,162.3,190.6,162.2,190.5,162.1z"/>
		<path class="st8" d="M191.5,162.3c0,0.1,0,0.1,0,0.2c-0.1,0-0.2,0-0.3-0.1C191.3,162.3,191.4,162.3,191.5,162.3z"/>
		<path class="st4" d="M180.8,158.2c0.1,0,0.1,0,0.2,0.1C180.9,158.2,180.8,158.3,180.8,158.2L180.8,158.2z"/>
	</g>
	<g>
		<path class="st9" d="M863.1,95.2c4.6,0,9,0,13.8,0c1.1,6.7,6,7.3,11.8,7.2c18.5-0.2,37.1-0.1,55.6-0.1c7.3,0,9.5-2.2,9.5-9.4
			c0-1.7,0-3.3,0-5c0-6-2.4-8.4-8.4-8.4c-20.5,0-40.9,0-61.4,0c-9.5,0-18-5.7-20.1-15c-2.2-9.9-3.4-20.3,3.8-29.1
			c4-5,9.3-7.7,15.8-7.7c21.5,0,43-0.1,64.5,0c11.3,0.1,21.2,10.5,20,21.5c-4.1,0-8.3,0.1-12.5-0.1c-0.7,0-1.5-1.2-1.9-2
			c-1.3-3.3-3.6-4.9-7.1-4.9c-20.6,0-41.2,0-61.8,0c-4.7,0-7.3,2.8-7.4,7.5c0,2.4,0,4.9,0,7.3c0.1,5.2,2.6,7.8,7.9,7.8
			c20.6,0,41.2,0,61.8,0c9.9,0,18.8,6.4,20.5,16c1.1,6.6,1.1,13.7-0.1,20.2c-1.7,9.3-10.5,15.5-20,15.5c-21.5,0-43,0.1-64.5,0
			C871.6,116.7,862.3,106.6,863.1,95.2z"/>
		<path class="st9" d="M591.2,56.1c-4.8,0-9.3,0-13.8,0c-0.3-1-0.6-2-0.9-3c-1.8-6.8-6.7-10.7-13.7-10.8c-16.1-0.1-32.2-0.1-48.3,0
			c-8.4,0-14,5.8-14,14.2c0,10.6,0,21.1,0,31.7c0,8.1,5.5,14,13.7,14.1c16.2,0.2,32.5,0.3,48.7,0c9.8-0.2,15.2-7.8,13.6-18.9
			c-6.5,0-13,0-19.5,0c-5.3,0-10.6-0.1-15.8,0c-2.1,0-2.9-0.7-3-2.9c-0.7-11.7-0.8-11.7,10.8-11.7c10.3,0,20.6,0,30.9,0
			c7.4,0,11.4,4.1,11.5,11.5c0.1,7.8,0.7,15.7-4,22.8c-5.8,8.8-13.7,13.7-24.4,13.7c-16.5,0-33,0-49.5,0
			c-14.9,0-27.2-11.8-27.6-26.7c-0.3-11.8-0.3-23.7,0-35.5c0.4-14.8,12.7-26.7,27.5-26.8c17-0.1,34-0.1,51,0
			c12.8,0.1,24.9,10.9,26.7,23.6C591.4,52.8,591.2,54.4,591.2,56.1z"/>
		<path class="st9" d="M703.8,94.1c0-22.6,0-44.3,0-66.2c4.8,0,9.3,0,14,0c0,29.6,0,59,0,88.5c-5.3,0.7-9.8,0.5-14.4-3.3
			c-23.7-19.8-47.7-39.3-71.6-58.8c-1.3-1.1-2.6-2.1-4.5-3.7c0,22.3,0,43.9,0,65.8c-5.1,0-9.6,0-14.5,0c0-29.5,0-58.9,0-88.5
			c5.3-0.7,9.8-0.5,14.3,3.3c24.1,20.2,48.5,39.9,72.8,59.8C700.9,92,701.9,92.7,703.8,94.1z"/>
		<path class="st9" d="M475.3,116.7c-5.8,0-10.8,0.1-15.8-0.1c-1.1-0.1-2.5-1.2-3.2-2.2c-3.4-4.8-6.5-9.9-10-14.7
			c-0.9-1.2-2.8-2.3-4.3-2.3c-20.2-0.1-40.4-0.2-60.7,0c-1.6,0-3.6,1.1-4.6,2.4c-3.5,4.7-6.6,9.8-10,14.7c-0.6,0.9-1.6,2-2.5,2.1
			c-5.2,0.2-10.4,0.1-16.5,0.1c4.6-6.8,8.7-13,12.8-19.2c14.9-22.2,29.9-44.4,44.9-66.6c3.2-4.7,8.9-4.8,12.1-0.1
			c18.6,27.6,37.3,55.3,55.9,82.9C474,114.5,474.4,115.3,475.3,116.7z M411.6,48.5c-7.9,11.6-15.5,22.7-23.2,34
			c15.8,0,30.9,0,46.5,0C427,71.1,419.5,60.1,411.6,48.5z"/>
		<path class="st9" d="M844.5,28c0.1,1.4,0.2,2.6,0.2,3.9c0,18.9,0,37.9,0,56.8c0,15.9-12.2,28.1-28.1,28.1
			c-15.7,0-31.5-0.6-47.1,0.2c-15.8,0.8-30.4-11.9-30.3-28.6c0.1-19.6,0-39.1,0-58.7c0-0.5,0.2-1,0.3-1.7c4.6,0,9.2,0,14.1,0
			c0.1,1.6,0.2,3.1,0.2,4.6c0,18.2,0,36.3,0,54.5c0,9.8,5.6,15.4,15.3,15.4c15.3,0,30.6,0,46,0c9.5,0,15.2-5.7,15.2-15.1
			c0-18.2,0-36.3,0-54.5c0-1.5,0-3,0-4.8C835.1,28,839.7,28,844.5,28z"/>
	</g>
</g>
</svg>
